<svg xmlns="http://www.w3.org/2000/svg" xmlns:xlink="http://www.w3.org/1999/xlink" version="1.1"  viewBox="0 0 512 512" xml:space="preserve">




<g transform="matrix(1 0 0 1 256 256)" id="c15c1dd8-2eec-4297-8906-4044f58f5f06">
<rect style="stroke: none; stroke-width: 1; stroke-dasharray: none; stroke-linecap: butt; stroke-dashoffset: 0; stroke-linejoin: miter; stroke-miterlimit: 4; fill: rgb(255,255,255); fill-rule: nonzero; opacity: 1;" vector-effect="non-scaling-stroke" x="-256" y="-256" rx="0" ry="0" width="512" height="512"/>
</g>
<g transform="matrix(4.61 0 0 4.61 307 256)">
<g style="" vector-effect="non-scaling-stroke">
		<g transform="matrix(1 0 0 1 -10.78 0)">
<path style="stroke: none; stroke-width: 1; stroke-dasharray: none; stroke-linecap: butt; stroke-dashoffset: 0; stroke-linejoin: miter; stroke-miterlimit: 4; fill: rgb(104,159,99); fill-rule: nonzero; opacity: 1;" vector-effect="non-scaling-stroke" transform=" translate(-218.63, -216.42)" d="M 218.647 270.93 C 217.18699999999998 270.93 215.737 270.547 214.457 269.81 L 201.12 261.914 C 199.12800000000001 260.8 200.1 260.406 200.757 260.179 C 203.413 259.24899999999997 203.952 259.039 206.787 257.429 C 207.085 257.25899999999996 207.475 257.31899999999996 207.78 257.49899999999997 L 218.026 263.57899999999995 C 218.39600000000002 263.77899999999994 218.92100000000002 263.77899999999994 219.264 263.57899999999995 L 259.214 240.51899999999995 C 259.584 240.30899999999994 259.824 239.87899999999996 259.824 239.43899999999994 L 259.824 193.33899999999994 C 259.824 192.87899999999993 259.584 192.46899999999994 259.206 192.23899999999995 L 219.27200000000002 169.19899999999996 C 218.90200000000002 168.97899999999996 218.412 168.97899999999996 218.04200000000003 169.19899999999996 L 178.11600000000004 192.23899999999995 C 177.72900000000004 192.45899999999995 177.48300000000003 192.88899999999995 177.48300000000003 193.32899999999995 L 177.48300000000003 239.42899999999995 C 177.48300000000003 239.86899999999994 177.72300000000004 240.28899999999996 178.10300000000004 240.49899999999994 L 189.04300000000003 246.81899999999993 C 194.98300000000003 249.78899999999993 198.61300000000003 246.28899999999993 198.61300000000003 242.76899999999992 L 198.61300000000003 197.26899999999992 C 198.61300000000003 196.61899999999991 199.12300000000002 196.11899999999991 199.77300000000002 196.11899999999991 L 204.83300000000003 196.11899999999991 C 205.46300000000002 196.11899999999991 205.98300000000003 196.61899999999991 205.98300000000003 197.26899999999992 L 205.98300000000003 242.78899999999993 C 205.98300000000003 250.70899999999992 201.66300000000004 255.25899999999993 194.15300000000002 255.25899999999993 C 191.84300000000002 255.25899999999993 190.02300000000002 255.25899999999993 184.943 252.75899999999993 L 174.46300000000002 246.71899999999994 C 171.87300000000002 245.21899999999994 170.27300000000002 242.41899999999993 170.27300000000002 239.42899999999995 L 170.27300000000002 193.32899999999995 C 170.27300000000002 190.32899999999995 171.87300000000002 187.52899999999994 174.46300000000002 186.04899999999995 L 214.45300000000003 162.97899999999996 C 216.98300000000003 161.54899999999995 220.34300000000002 161.54899999999995 222.85300000000004 162.97899999999996 L 262.793 186.05899999999997 C 265.373 187.54899999999998 266.983 190.33899999999997 266.983 193.33899999999997 L 266.983 239.43899999999996 C 266.983 242.42899999999997 265.373 245.21899999999997 262.793 246.71899999999997 L 222.853 269.789 C 221.573 270.529 220.12300000000002 270.909 218.643 270.909" stroke-linecap="round"/>
</g>
		<g transform="matrix(1 0 0 1 19.79 -5.24)">
<path style="stroke: none; stroke-width: 1; stroke-dasharray: none; stroke-linecap: butt; stroke-dashoffset: 0; stroke-linejoin: miter; stroke-miterlimit: 4; fill: rgb(104,159,99); fill-rule: nonzero; opacity: 1;" vector-effect="non-scaling-stroke" transform=" translate(-249.19, -211.19)" d="M 230.987 239.164 C 213.507 239.164 209.84199999999998 231.14 209.84199999999998 224.41 C 209.84199999999998 223.77 210.35799999999998 223.26 210.999 223.26 L 216.159 223.26 C 216.72899999999998 223.26 217.209 223.67499999999998 217.29899999999998 224.238 C 218.07899999999998 229.496 220.39899999999997 232.148 230.96899999999997 232.148 C 239.38899999999995 232.148 242.96899999999997 230.246 242.96899999999997 225.781 C 242.96899999999997 223.211 241.94899999999996 221.30100000000002 228.86899999999997 220.02100000000002 C 217.92899999999997 218.941 211.16899999999998 216.531 211.16899999999998 207.781 C 211.16899999999998 199.721 217.969 194.921 229.35899999999998 194.921 C 242.14899999999997 194.921 248.48899999999998 199.361 249.289 208.90099999999998 C 249.319 209.231 249.19899999999998 209.551 248.97899999999998 209.79099999999997 C 248.759 210.02099999999996 248.44899999999998 210.16099999999997 248.129 210.16099999999997 L 242.939 210.16099999999997 C 242.399 210.16099999999997 241.929 209.78099999999998 241.819 209.26099999999997 C 240.569 203.73099999999997 237.54899999999998 201.96099999999996 229.339 201.96099999999996 C 220.149 201.96099999999996 219.079 205.16099999999994 219.079 207.56099999999995 C 219.079 210.47099999999995 220.339 211.32099999999994 232.739 212.96099999999996 C 245.019 214.59099999999995 250.849 216.89099999999996 250.849 225.52099999999996 C 250.849 234.22099999999995 243.589 239.21099999999996 230.92899999999997 239.21099999999996 M 279.58899999999994 190.32099999999997 L 280.9289999999999 190.32099999999997 C 282.02899999999994 190.32099999999997 282.2389999999999 189.55099999999996 282.2389999999999 189.10099999999997 C 282.2389999999999 187.92099999999996 281.4289999999999 187.92099999999996 280.9789999999999 187.92099999999996 L 279.59899999999993 187.92099999999996 z M 277.95899999999995 186.54099999999997 L 280.929 186.54099999999997 C 281.94899999999996 186.54099999999997 283.94899999999996 186.54099999999997 283.94899999999996 188.82099999999997 C 283.94899999999996 190.41099999999997 282.929 190.74099999999996 282.31899999999996 190.94099999999997 C 283.50899999999996 191.021 283.58899999999994 191.801 283.74899999999997 192.90099999999998 C 283.82899999999995 193.59099999999998 283.95899999999995 194.78099999999998 284.19899999999996 195.18099999999998 L 282.36899999999997 195.18099999999998 C 282.31899999999996 194.78099999999998 282.039 192.581 282.039 192.46099999999998 C 281.919 191.97099999999998 281.74899999999997 191.731 281.139 191.731 L 279.629 191.731 L 279.629 195.191 L 277.959 195.191 z M 274.38899999999995 190.84099999999998 C 274.38899999999995 194.421 277.27899999999994 197.32099999999997 280.82899999999995 197.32099999999997 C 284.40899999999993 197.32099999999997 287.299 194.36099999999996 287.299 190.84099999999998 C 287.299 187.25099999999998 284.36899999999997 184.40099999999998 280.81899999999996 184.40099999999998 C 277.31899999999996 184.40099999999998 274.37899999999996 187.21099999999998 274.37899999999996 190.831 M 288.539 190.861 C 288.539 195.101 285.06899999999996 198.56099999999998 280.839 198.56099999999998 C 276.639 198.56099999999998 273.139 195.141 273.139 190.861 C 273.139 186.50099999999998 276.719 183.161 280.839 183.161 C 284.989 183.161 288.529 186.511 288.529 190.861" stroke-linecap="round"/>
</g>
</g>
</g>

</svg>
