<?xml version="1.0" encoding="utf-8"?><svg xmlns="http://www.w3.org/2000/svg" xmlns:xlink="http://www.w3.org/1999/xlink" viewBox="0 0 500 583.50" style="fill: url(#g1)"><rect x="15.00" y="15.00" fill="#ffffff" fill-opacity="1" /><g transform="scale(20.83) translate(0 0)"><path d="M22.7,0H1.3C0.6,0,0,0.6,0,1.3v25.3C0,27.4,0.6,28,1.3,28h21.3c0.7,0,1.3-0.6,1.3-1.3V1.3C24,0.6,23.4,0,22.7,0 z M23,22c0,0.6-0.5,1-1,1H2c-0.6,0-1-0.5-1-1V2c0-0.6,0.5-1,1-1h20c0.6,0,1,0.5,1,1V22z" />

                        </g><g transform="scale(0.85) translate(43.48 43.48)"><svg xmlns="http://www.w3.org/2000/svg" version="1.1" width="500" height="500" viewBox="0 0 500 500"><g transform="scale(20)"><g transform="translate(0,0)"><defs><linearGradient gradientUnits="userSpaceOnUse" x1="0" y1="0" x2="25" y2="25" id="g1"><stop offset="0%" style="stop-color: #000000" /><stop offset="100%" style="stop-color: #6e11b0" /></linearGradient></defs><path d="M10 0.45L10 1.55A0.45 0.45 0 0 0 10.45 2L10.55 2A0.45 0.45 0 0 0 11 1.55L11 0.45A0.45 0.45 0 0 0 10.55 0L10.45 0A0.45 0.45 0 0 0 10 0.45ZM12 0.45L12 0.55A0.45 0.45 0 0 0 12.45 1L12.55 1A0.45 0.45 0 0 1 13 1.45L13 1.55A0.45 0.45 0 0 1 12.55 2L12.45 2A0.45 0.45 0 0 0 12 2.45L12 3.55A0.45 0.45 0 0 0 12.45 4L12.55 4A0.45 0.45 0 0 0 13 3.55L13 2.45A0.45 0.45 0 0 1 13.45 2L14.55 2A0.45 0.45 0 0 0 15 1.55L15 1.45A0.45 0.45 0 0 1 15.45 1L16.55 1A0.45 0.45 0 0 0 17 0.55L17 0.45A0.45 0.45 0 0 0 16.55 0L14.45 0A0.45 0.45 0 0 0 14 0.45L14 0.55A0.45 0.45 0 0 1 13.55 1L13.45 1A0.45 0.45 0 0 1 13 0.55L13 0.45A0.45 0.45 0 0 0 12.55 0L12.45 0A0.45 0.45 0 0 0 12 0.45ZM8 1.45L8 1.55A0.45 0.45 0 0 0 8.45 2L8.55 2A0.45 0.45 0 0 0 9 1.55L9 1.45A0.45 0.45 0 0 0 8.55 1L8.45 1A0.45 0.45 0 0 0 8 1.45ZM16 2.45L16 2.55A0.45 0.45 0 0 1 15.55 3L14.45 3A0.45 0.45 0 0 0 14 3.45L14 4.55A0.45 0.45 0 0 1 13.55 5L11.45 5A0.45 0.45 0 0 0 11 5.45L11 5.55A0.45 0.45 0 0 1 10.55 6L10.45 6A0.45 0.45 0 0 1 10 5.55L10 4.45A0.45 0.45 0 0 1 10.45 4L10.55 4A0.45 0.45 0 0 0 11 3.55L11 3.45A0.45 0.45 0 0 0 10.55 3L8.45 3A0.45 0.45 0 0 0 8 3.45L8 3.55A0.45 0.45 0 0 0 8.45 4L8.55 4A0.45 0.45 0 0 1 9 4.45L9 4.55A0.45 0.45 0 0 1 8.55 5L8.45 5A0.45 0.45 0 0 0 8 5.45L8 6.55A0.45 0.45 0 0 0 8.45 7L8.55 7A0.45 0.45 0 0 1 9 7.45L9 7.55A0.45 0.45 0 0 1 8.55 8L6.45 8A0.45 0.45 0 0 0 6 8.45L6 8.55A0.45 0.45 0 0 0 6.45 9L6.55 9A0.45 0.45 0 0 1 7 9.45L7 9.55A0.45 0.45 0 0 1 6.55 10L5.45 10A0.45 0.45 0 0 1 5 9.55L5 8.45A0.45 0.45 0 0 0 4.55 8L0.45 8A0.45 0.45 0 0 0 0 8.45L0 8.55A0.45 0.45 0 0 0 0.45 9L0.55 9A0.45 0.45 0 0 1 1 9.45L1 9.55A0.45 0.45 0 0 1 0.55 10L0.45 10A0.45 0.45 0 0 0 0 10.45L0 10.55A0.45 0.45 0 0 0 0.45 11L0.55 11A0.45 0.45 0 0 1 1 11.45L1 11.55A0.45 0.45 0 0 1 0.55 12L0.45 12A0.45 0.45 0 0 0 0 12.45L0 16.55A0.45 0.45 0 0 0 0.45 17L0.55 17A0.45 0.45 0 0 0 1 16.55L1 14.45A0.45 0.45 0 0 1 1.45 14L1.55 14A0.45 0.45 0 0 1 2 14.45L2 14.55A0.45 0.45 0 0 0 2.45 15L2.55 15A0.45 0.45 0 0 0 3 14.55L3 14.45A0.45 0.45 0 0 1 3.45 14L3.55 14A0.45 0.45 0 0 0 4 13.55L4 13.45A0.45 0.45 0 0 0 3.55 13L3.45 13A0.45 0.45 0 0 1 3 12.55L3 12.45A0.45 0.45 0 0 0 2.55 12L2.45 12A0.45 0.45 0 0 1 2 11.55L2 11.45A0.45 0.45 0 0 1 2.45 11L6.55 11A0.45 0.45 0 0 1 7 11.45L7 11.55A0.45 0.45 0 0 1 6.55 12L6.45 12A0.45 0.45 0 0 0 6 12.45L6 12.55A0.45 0.45 0 0 1 5.55 13L5.45 13A0.45 0.45 0 0 0 5 13.45L5 14.55A0.45 0.45 0 0 0 5.45 15L6.55 15A0.45 0.45 0 0 1 7 15.45L7 15.55A0.45 0.45 0 0 1 6.55 16L5.45 16A0.45 0.45 0 0 0 5 16.45L5 16.55A0.45 0.45 0 0 0 5.45 17L6.55 17A0.45 0.45 0 0 0 7 16.55L7 16.45A0.45 0.45 0 0 1 7.45 16L7.55 16A0.45 0.45 0 0 1 8 16.45L8 18.55A0.45 0.45 0 0 0 8.45 19L8.55 19A0.45 0.45 0 0 0 9 18.55L9 18.45A0.45 0.45 0 0 1 9.45 18L11.55 18A0.45 0.45 0 0 1 12 18.45L12 18.55A0.45 0.45 0 0 1 11.55 19L11.45 19A0.45 0.45 0 0 0 11 19.45L11 19.55A0.45 0.45 0 0 1 10.55 20L10.45 20A0.45 0.45 0 0 0 10 20.45L10 20.55A0.45 0.45 0 0 1 9.55 21L9.45 21A0.45 0.45 0 0 1 9 20.55L9 20.45A0.45 0.45 0 0 0 8.55 20L8.45 20A0.45 0.45 0 0 0 8 20.45L8 24.55A0.45 0.45 0 0 0 8.45 25L8.55 25A0.45 0.45 0 0 0 9 24.55L9 24.45A0.45 0.45 0 0 1 9.45 24L9.55 24A0.45 0.45 0 0 1 10 24.45L10 24.55A0.45 0.45 0 0 0 10.45 25L10.55 25A0.45 0.45 0 0 0 11 24.55L11 24.45A0.45 0.45 0 0 1 11.45 24L11.55 24A0.45 0.45 0 0 1 12 24.45L12 24.55A0.45 0.45 0 0 0 12.45 25L12.55 25A0.45 0.45 0 0 0 13 24.55L13 24.45A0.45 0.45 0 0 0 12.55 24L12.45 24A0.45 0.45 0 0 1 12 23.55L12 23.45A0.45 0.45 0 0 1 12.45 23L13.55 23A0.45 0.45 0 0 1 14 23.45L14 24.55A0.45 0.45 0 0 0 14.45 25L15.55 25A0.45 0.45 0 0 0 16 24.55L16 23.45A0.45 0.45 0 0 0 15.55 23L15.45 23A0.45 0.45 0 0 1 15 22.55L15 22.45A0.45 0.45 0 0 0 14.55 22L13.45 22A0.45 0.45 0 0 1 13 21.55L13 21.45A0.45 0.45 0 0 1 13.45 21L14.55 21A0.45 0.45 0 0 0 15 20.55L15 20.45A0.45 0.45 0 0 1 15.45 20L15.55 20A0.45 0.45 0 0 1 16 20.45L16 21.55A0.45 0.45 0 0 0 16.45 22L16.55 22A0.45 0.45 0 0 1 17 22.45L17 24.55A0.45 0.45 0 0 0 17.45 25L17.55 25A0.45 0.45 0 0 0 18 24.55L18 24.45A0.45 0.45 0 0 1 18.45 24L21.55 24A0.45 0.45 0 0 1 22 24.45L22 24.55A0.45 0.45 0 0 0 22.45 25L24.55 25A0.45 0.45 0 0 0 25 24.55L25 24.45A0.45 0.45 0 0 0 24.55 24L24.45 24A0.45 0.45 0 0 1 24 23.55L24 23.45A0.45 0.45 0 0 1 24.45 23L24.55 23A0.45 0.45 0 0 0 25 22.55L25 21.45A0.45 0.45 0 0 0 24.55 21L23.45 21A0.45 0.45 0 0 0 23 21.45L23 21.55A0.45 0.45 0 0 1 22.55 22L22.45 22A0.45 0.45 0 0 0 22 22.45L22 22.55A0.45 0.45 0 0 1 21.55 23L21.45 23A0.45 0.45 0 0 1 21 22.55L21 21.45A0.45 0.45 0 0 1 21.45 21L21.55 21A0.45 0.45 0 0 0 22 20.55L22 19.45A0.45 0.45 0 0 1 22.45 19L24.55 19A0.45 0.45 0 0 0 25 18.55L25 15.45A0.45 0.45 0 0 0 24.55 15L23.45 15A0.45 0.45 0 0 1 23 14.55L23 14.45A0.45 0.45 0 0 1 23.45 14L24.55 14A0.45 0.45 0 0 0 25 13.55L25 12.45A0.45 0.45 0 0 0 24.55 12L23.45 12A0.45 0.45 0 0 0 23 12.45L23 13.55A0.45 0.45 0 0 1 22.55 14L22.45 14A0.45 0.45 0 0 0 22 14.45L22 14.55A0.45 0.45 0 0 0 22.45 15L22.55 15A0.45 0.45 0 0 1 23 15.45L23 15.55A0.45 0.45 0 0 0 23.45 16L23.55 16A0.45 0.45 0 0 1 24 16.45L24 17.55A0.45 0.45 0 0 1 23.55 18L22.45 18A0.45 0.45 0 0 0 22 18.45L22 18.55A0.45 0.45 0 0 1 21.55 19L21.45 19A0.45 0.45 0 0 1 21 18.55L21 17.45A0.45 0.45 0 0 1 21.45 17L21.55 17A0.45 0.45 0 0 0 22 16.55L22 16.45A0.45 0.45 0 0 0 21.55 16L17.45 16A0.45 0.45 0 0 1 17 15.55L17 15.45A0.45 0.45 0 0 1 17.45 15L18.55 15A0.45 0.45 0 0 0 19 14.55L19 14.45A0.45 0.45 0 0 1 19.45 14L19.55 14A0.45 0.45 0 0 1 20 14.45L20 14.55A0.45 0.45 0 0 0 20.45 15L20.55 15A0.45 0.45 0 0 0 21 14.55L21 13.45A0.45 0.45 0 0 1 21.45 13L21.55 13A0.45 0.45 0 0 0 22 12.55L22 12.45A0.45 0.45 0 0 0 21.55 12L18.45 12A0.45 0.45 0 0 0 18 12.45L18 12.55A0.45 0.45 0 0 0 18.45 13L18.55 13A0.45 0.45 0 0 1 19 13.45L19 13.55A0.45 0.45 0 0 1 18.55 14L17.45 14A0.45 0.45 0 0 1 17 13.55L17 11.45A0.45 0.45 0 0 1 17.45 11L18.55 11A0.45 0.45 0 0 0 19 10.55L19 10.45A0.45 0.45 0 0 1 19.45 10L19.55 10A0.45 0.45 0 0 1 20 10.45L20 10.55A0.45 0.45 0 0 0 20.45 11L20.55 11A0.45 0.45 0 0 0 21 10.55L21 9.45A0.45 0.45 0 0 1 21.45 9L21.55 9A0.45 0.45 0 0 0 22 8.55L22 8.45A0.45 0.45 0 0 0 21.55 8L21.45 8A0.45 0.45 0 0 0 21 8.45L21 8.55A0.45 0.45 0 0 1 20.55 9L20.45 9A0.45 0.45 0 0 1 20 8.55L20 8.45A0.45 0.45 0 0 0 19.55 8L19.45 8A0.45 0.45 0 0 0 19 8.45L19 9.55A0.45 0.45 0 0 1 18.55 10L18.45 10A0.45 0.45 0 0 1 18 9.55L18 8.45A0.45 0.45 0 0 0 17.55 8L17.45 8A0.45 0.45 0 0 0 17 8.45L17 9.55A0.45 0.45 0 0 1 16.55 10L15.45 10A0.45 0.45 0 0 1 15 9.55L15 9.45A0.45 0.45 0 0 1 15.45 9L15.55 9A0.45 0.45 0 0 0 16 8.55L16 8.45A0.45 0.45 0 0 0 15.55 8L14.45 8A0.45 0.45 0 0 1 14 7.55L14 7.45A0.45 0.45 0 0 1 14.45 7L14.55 7A0.45 0.45 0 0 0 15 6.55L15 6.45A0.45 0.45 0 0 0 14.55 6L14.45 6A0.45 0.45 0 0 1 14 5.55L14 5.45A0.45 0.45 0 0 1 14.45 5L14.55 5A0.45 0.45 0 0 0 15 4.55L15 4.45A0.45 0.45 0 0 1 15.45 4L15.55 4A0.45 0.45 0 0 1 16 4.45L16 4.55A0.45 0.45 0 0 0 16.45 5L16.55 5A0.45 0.45 0 0 0 17 4.55L17 4.45A0.45 0.45 0 0 0 16.55 4L16.45 4A0.45 0.45 0 0 1 16 3.55L16 3.45A0.45 0.45 0 0 1 16.45 3L16.55 3A0.45 0.45 0 0 0 17 2.55L17 2.45A0.45 0.45 0 0 0 16.55 2L16.45 2A0.45 0.45 0 0 0 16 2.45ZM9 6.45L9 6.55A0.45 0.45 0 0 0 9.45 7L9.55 7A0.45 0.45 0 0 0 10 6.55L10 6.45A0.45 0.45 0 0 0 9.55 6L9.45 6A0.45 0.45 0 0 0 9 6.45ZM11 6.45L11 6.55A0.45 0.45 0 0 0 11.45 7L11.55 7A0.45 0.45 0 0 1 12 7.45L12 7.55A0.45 0.45 0 0 0 12.45 8L12.55 8A0.45 0.45 0 0 0 13 7.55L13 7.45A0.45 0.45 0 0 1 13.45 7L13.55 7A0.45 0.45 0 0 0 14 6.55L14 6.45A0.45 0.45 0 0 0 13.55 6L13.45 6A0.45 0.45 0 0 0 13 6.45L13 6.55A0.45 0.45 0 0 1 12.55 7L12.45 7A0.45 0.45 0 0 1 12 6.55L12 6.45A0.45 0.45 0 0 0 11.55 6L11.45 6A0.45 0.45 0 0 0 11 6.45ZM16 6.45L16 6.55A0.45 0.45 0 0 0 16.45 7L16.55 7A0.45 0.45 0 0 0 17 6.55L17 6.45A0.45 0.45 0 0 0 16.55 6L16.45 6A0.45 0.45 0 0 0 16 6.45ZM10 8.45L10 8.55A0.45 0.45 0 0 1 9.55 9L8.45 9A0.45 0.45 0 0 0 8 9.45L8 9.55A0.45 0.45 0 0 1 7.55 10L7.45 10A0.45 0.45 0 0 0 7 10.45L7 10.55A0.45 0.45 0 0 0 7.45 11L7.55 11A0.45 0.45 0 0 1 8 11.45L8 11.55A0.45 0.45 0 0 1 7.55 12L7.45 12A0.45 0.45 0 0 0 7 12.45L7 12.55A0.45 0.45 0 0 1 6.55 13L6.45 13A0.45 0.45 0 0 0 6 13.45L6 13.55A0.45 0.45 0 0 0 6.45 14L6.55 14A0.45 0.45 0 0 1 7 14.45L7 14.55A0.45 0.45 0 0 0 7.45 15L7.55 15A0.45 0.45 0 0 1 8 15.45L8 15.55A0.45 0.45 0 0 0 8.45 16L8.55 16A0.45 0.45 0 0 1 9 16.45L9 16.55A0.45 0.45 0 0 0 9.45 17L12.55 17A0.45 0.45 0 0 1 13 17.45L13 17.55A0.45 0.45 0 0 0 13.45 18L13.55 18A0.45 0.45 0 0 0 14 17.55L14 17.45A0.45 0.45 0 0 0 13.55 17L13.45 17A0.45 0.45 0 0 1 13 16.55L13 14.45A0.45 0.45 0 0 1 13.45 14L13.55 14A0.45 0.45 0 0 0 14 13.55L14 13.45A0.45 0.45 0 0 1 14.45 13L14.55 13A0.45 0.45 0 0 1 15 13.45L15 14.55A0.45 0.45 0 0 1 14.55 15L14.45 15A0.45 0.45 0 0 0 14 15.45L14 15.55A0.45 0.45 0 0 0 14.45 16L15.55 16A0.45 0.45 0 0 0 16 15.55L16 15.45A0.45 0.45 0 0 1 16.45 15L16.55 15A0.45 0.45 0 0 0 17 14.55L17 14.45A0.45 0.45 0 0 0 16.55 14L16.45 14A0.45 0.45 0 0 1 16 13.55L16 13.45A0.45 0.45 0 0 0 15.55 13L15.45 13A0.45 0.45 0 0 1 15 12.55L15 12.45A0.45 0.45 0 0 1 15.45 12L15.55 12A0.45 0.45 0 0 0 16 11.55L16 11.45A0.45 0.45 0 0 0 15.55 11L13.45 11A0.45 0.45 0 0 0 13 11.45L13 11.55A0.45 0.45 0 0 0 13.45 12L13.55 12A0.45 0.45 0 0 1 14 12.45L14 12.55A0.45 0.45 0 0 1 13.55 13L12.45 13A0.45 0.45 0 0 1 12 12.55L12 9.45A0.45 0.45 0 0 0 11.55 9L11.45 9A0.45 0.45 0 0 1 11 8.55L11 8.45A0.45 0.45 0 0 0 10.55 8L10.45 8A0.45 0.45 0 0 0 10 8.45ZM23 8.45L23 8.55A0.45 0.45 0 0 0 23.45 9L23.55 9A0.45 0.45 0 0 1 24 9.45L24 9.55A0.45 0.45 0 0 0 24.45 10L24.55 10A0.45 0.45 0 0 0 25 9.55L25 9.45A0.45 0.45 0 0 0 24.55 9L24.45 9A0.45 0.45 0 0 1 24 8.55L24 8.45A0.45 0.45 0 0 0 23.55 8L23.45 8A0.45 0.45 0 0 0 23 8.45ZM2 9.45L2 9.55A0.45 0.45 0 0 0 2.45 10L3.55 10A0.45 0.45 0 0 0 4 9.55L4 9.45A0.45 0.45 0 0 0 3.55 9L2.45 9A0.45 0.45 0 0 0 2 9.45ZM10 9.45L10 10.55A0.45 0.45 0 0 0 10.45 11L10.55 11A0.45 0.45 0 0 0 11 10.55L11 9.45A0.45 0.45 0 0 0 10.55 9L10.45 9A0.45 0.45 0 0 0 10 9.45ZM13 9.45L13 9.55A0.45 0.45 0 0 0 13.45 10L13.55 10A0.45 0.45 0 0 0 14 9.55L14 9.45A0.45 0.45 0 0 0 13.55 9L13.45 9A0.45 0.45 0 0 0 13 9.45ZM22 10.45L22 10.55A0.45 0.45 0 0 0 22.45 11L22.55 11A0.45 0.45 0 0 0 23 10.55L23 10.45A0.45 0.45 0 0 0 22.55 10L22.45 10A0.45 0.45 0 0 0 22 10.45ZM8 12.45L8 13.55A0.45 0.45 0 0 0 8.45 14L8.55 14A0.45 0.45 0 0 1 9 14.45L9 15.55A0.45 0.45 0 0 0 9.45 16L9.55 16A0.45 0.45 0 0 0 10 15.55L10 14.45A0.45 0.45 0 0 0 9.55 14L9.45 14A0.45 0.45 0 0 1 9 13.55L9 13.45A0.45 0.45 0 0 1 9.45 13L10.55 13A0.45 0.45 0 0 0 11 12.55L11 12.45A0.45 0.45 0 0 0 10.55 12L8.45 12A0.45 0.45 0 0 0 8 12.45ZM11 15.45L11 15.55A0.45 0.45 0 0 0 11.45 16L11.55 16A0.45 0.45 0 0 0 12 15.55L12 15.45A0.45 0.45 0 0 0 11.55 15L11.45 15A0.45 0.45 0 0 0 11 15.45ZM3 16.45L3 16.55A0.45 0.45 0 0 0 3.45 17L3.55 17A0.45 0.45 0 0 0 4 16.55L4 16.45A0.45 0.45 0 0 0 3.55 16L3.45 16A0.45 0.45 0 0 0 3 16.45ZM17 17.45L17 19.55A0.45 0.45 0 0 0 17.45 20L19.55 20A0.45 0.45 0 0 0 20 19.55L20 17.45A0.45 0.45 0 0 0 19.55 17L17.45 17A0.45 0.45 0 0 0 17 17.45ZM15 18.45L15 18.55A0.45 0.45 0 0 1 14.55 19L14.45 19A0.45 0.45 0 0 0 14 19.45L14 19.55A0.45 0.45 0 0 0 14.45 20L14.55 20A0.45 0.45 0 0 0 15 19.55L15 19.45A0.45 0.45 0 0 1 15.45 19L15.55 19A0.45 0.45 0 0 0 16 18.55L16 18.45A0.45 0.45 0 0 0 15.55 18L15.45 18A0.45 0.45 0 0 0 15 18.45ZM18 18.45L18 18.55A0.45 0.45 0 0 0 18.45 19L18.55 19A0.45 0.45 0 0 0 19 18.55L19 18.45A0.45 0.45 0 0 0 18.55 18L18.45 18A0.45 0.45 0 0 0 18 18.45ZM12 19.45L12 19.55A0.45 0.45 0 0 1 11.55 20L11.45 20A0.45 0.45 0 0 0 11 20.45L11 22.55A0.45 0.45 0 0 1 10.55 23L10.45 23A0.45 0.45 0 0 0 10 23.45L10 23.55A0.45 0.45 0 0 0 10.45 24L10.55 24A0.45 0.45 0 0 0 11 23.55L11 23.45A0.45 0.45 0 0 1 11.45 23L11.55 23A0.45 0.45 0 0 0 12 22.55L12 21.45A0.45 0.45 0 0 1 12.45 21L12.55 21A0.45 0.45 0 0 0 13 20.55L13 19.45A0.45 0.45 0 0 0 12.55 19L12.45 19A0.45 0.45 0 0 0 12 19.45ZM18 21.45L18 22.55A0.45 0.45 0 0 0 18.45 23L19.55 23A0.45 0.45 0 0 0 20 22.55L20 21.45A0.45 0.45 0 0 0 19.55 21L18.45 21A0.45 0.45 0 0 0 18 21.45ZM23 22.45L23 22.55A0.45 0.45 0 0 1 22.55 23L22.45 23A0.45 0.45 0 0 0 22 23.45L22 23.55A0.45 0.45 0 0 0 22.45 24L22.55 24A0.45 0.45 0 0 0 23 23.55L23 23.45A0.45 0.45 0 0 1 23.45 23L23.55 23A0.45 0.45 0 0 0 24 22.55L24 22.45A0.45 0.45 0 0 0 23.55 22L23.45 22A0.45 0.45 0 0 0 23 22.45ZM0 3.5C0 0 0 0 3.5 0M0 3.5C0 7 0 7 3.5 7M3.5 7C7 7 7 7 7 3.5M7 3.5C7 0 7 0 3.5 0M7 3.5A0 0 0 0 1 3.5 7A0 0 0 0 1 0 3.5A0 0 0 0 1 3.5 0A0 0 0 0 1 7 3.5ZM1 3.5C1 1 1 1 3.5 1M1 3.5C1 6 1 6 3.5 6M3.5 6C6 6 6 6 6 3.5M6 3.5C6 1 6 1 3.5 1M6 3.5A0 0 0 0 1 3.5 6A0 0 0 0 1 1 3.5A0 0 0 0 1 3.5 1A0 0 0 0 1 6 3.5ZM2 3.5C2 2 2 2 3.5 2M2 3.5C2 5 2 5 3.5 5M3.5 5C5 5 5 5 5 3.5M5 3.5C5 2 5 2 3.5 2M5 3.5A0 0 0 0 1 3.5 5A0 0 0 0 1 2 3.5A0 0 0 0 1 3.5 2A0 0 0 0 1 5 3.5ZM18 3.5C18 0 18 0 21.5 0M18 3.5C18 7 18 7 21.5 7M21.5 7C25 7 25 7 25 3.5M25 3.5C25 0 25 0 21.5 0M25 3.5A0 0 0 0 1 21.5 7A0 0 0 0 1 18 3.5A0 0 0 0 1 21.5 0A0 0 0 0 1 25 3.5ZM19 3.5C19 1 19 1 21.5 1M19 3.5C19 6 19 6 21.5 6M21.5 6C24 6 24 6 24 3.5M24 3.5C24 1 24 1 21.5 1M24 3.5A0 0 0 0 1 21.5 6A0 0 0 0 1 19 3.5A0 0 0 0 1 21.5 1A0 0 0 0 1 24 3.5ZM20 3.5C20 2 20 2 21.5 2M20 3.5C20 5 20 5 21.5 5M21.5 5C23 5 23 5 23 3.5M23 3.5C23 2 23 2 21.5 2M23 3.5A0 0 0 0 1 21.5 5A0 0 0 0 1 20 3.5A0 0 0 0 1 21.5 2A0 0 0 0 1 23 3.5ZM0 21.5C0 18 0 18 3.5 18M0 21.5C0 25 0 25 3.5 25M3.5 25C7 25 7 25 7 21.5M7 21.5C7 18 7 18 3.5 18M7 21.5A0 0 0 0 1 3.5 25A0 0 0 0 1 0 21.5A0 0 0 0 1 3.5 18A0 0 0 0 1 7 21.5ZM1 21.5C1 19 1 19 3.5 19M1 21.5C1 24 1 24 3.5 24M3.5 24C6 24 6 24 6 21.5M6 21.5C6 19 6 19 3.5 19M6 21.5A0 0 0 0 1 3.5 24A0 0 0 0 1 1 21.5A0 0 0 0 1 3.5 19A0 0 0 0 1 6 21.5ZM2 21.5C2 20 2 20 3.5 20M2 21.5C2 23 2 23 3.5 23M3.5 23C5 23 5 23 5 21.5M5 21.5C5 20 5 20 3.5 20M5 21.5A0 0 0 0 1 3.5 23A0 0 0 0 1 2 21.5A0 0 0 0 1 3.5 20A0 0 0 0 1 5 21.5Z" style="fill-rule: evenodd; fill: url(#g1)" /></g></g></svg></g><svg><text x="50%" y="92%" style="dominant-baseline: middle; text-anchor: middle; font-weight: bold; font-size: 50.00px; fill: #ffffff; font-family: Monaco, monospace">Contact</text></svg></svg>
