<svg xmlns="http://www.w3.org/2000/svg" data-name="Layer 1" viewBox="0 0 24 24"><path d="M19.5 22H14a1 1 0 0 1-1-1v-1a1 1 0 0 1 1-1h5.5a1.5 1.5 0 0 1 1.5 1.5 1.5 1.5 0 0 1-1.5 1.5" style="fill:#4b5661"/><path d="M11 10h6v12H8a4 4 0 0 1-4-4v-1a7 7 0 0 1 7-7" style="fill:#4b5661"/><path d="M12 22a1 1 0 0 1-1-1v-1h2v1a1 1 0 0 1-1 1M16 22a1 1 0 0 1-1-1v-1h2v1a1 1 0 0 1-1 1M14 14a3 3 0 0 1-3-3V9h6v2a3 3 0 0 1-3 3" style="fill:#fff"/><path d="m13 4-3 2V2.207a.5.5 0 0 1 .854-.353ZM15 4l3 2V2.207a.5.5 0 0 0-.854-.353Z" style="fill:#ff888b"/><path d="M14 11a4 4 0 0 1-4-4V4h8v3a4 4 0 0 1-4 4" style="fill:#4b5661"/><circle cx="12.25" cy="6.75" r=".75" style="fill:#fff"/><circle cx="16" cy="6.75" r=".75" style="fill:#fff"/></svg>