<svg xmlns="http://www.w3.org/2000/svg" data-name="Layer 1" viewBox="0 0 24 24"><path d="m16 7-3 2V5.207a.5.5 0 0 1 .854-.353ZM18 7l3 2V5.207a.5.5 0 0 0-.854-.353Z" style="fill:#ff888b"/><path d="M6 13H4V5a1 1 0 0 1 1-1 1 1 0 0 1 1 1ZM5.5 22A1.5 1.5 0 0 1 4 20.5V13h3v7.5A1.5 1.5 0 0 1 5.5 22M15.5 22a1.5 1.5 0 0 1-1.5-1.5V13h3v7.5a1.5 1.5 0 0 1-1.5 1.5" style="fill:#4b5661"/><path d="M17 19c-3-4-10-4-13 0v-7c3-4 10-4 13 0Z" style="fill:#4b5661"/><path d="M17 14a4 4 0 0 1-4-4V7h8v3a4 4 0 0 1-4 4" style="fill:#4b5661"/><circle cx="15.25" cy="9.75" r=".75" style="fill:#fff"/><circle cx="19" cy="9.75" r=".75" style="fill:#fff"/></svg>